<svg width="38" height="38" viewBox="0 0 38 38" fill="none" xmlns="http://www.w3.org/2000/svg">
<g clip-path="url(#clip0_25_476)">
<path d="M12.4634 0.650024C13.5604 0.650024 14.4498 1.53938 14.4498 2.63639C14.4498 3.61799 13.7349 4.44174 12.7733 4.59747L12.6195 4.61643L12.4634 4.62275L4.6219 4.62202V17.013H25.7399L25.7408 8.80515C25.7408 7.81036 26.4721 6.98633 27.4265 6.8414L27.5789 6.82424L27.7272 6.81879C28.7088 6.81879 29.5325 7.5336 29.6883 8.49526L29.7072 8.64909L29.7135 8.80515V27.7273C29.7135 28.8243 28.8242 29.7136 27.7272 29.7136C26.7456 29.7136 25.9218 28.9988 25.7661 28.0372L25.7471 27.8833L25.7408 27.7273L25.7399 20.986H20.9859L20.9865 27.7273C20.9865 28.6543 20.3489 29.4406 19.4679 29.6563L19.31 29.6883L19.1562 29.7073L19.0001 29.7136H8.54528C7.44828 29.7136 6.55892 28.8243 6.55892 27.7273C6.55892 26.7457 7.27374 25.9219 8.2354 25.7662L8.38922 25.7472L8.54528 25.7409L17.0129 25.74V20.986H4.6219V33.377L18.9999 33.3773C19.9947 33.3773 20.8187 34.1086 20.9637 35.0629L20.9808 35.2154L20.9863 35.3636C20.9863 36.3452 20.2715 37.169 19.3098 37.3247L19.156 37.3437L18.9999 37.35H2.63627C1.65466 37.35 0.830915 36.6352 0.675188 35.6735L0.656225 35.5197L0.649902 35.3636V2.63639C0.649902 1.65478 1.36472 0.831036 2.32638 0.67531L2.4802 0.656347L2.63627 0.650024H12.4634ZM35.3635 0.650024C36.3451 0.650024 37.1689 1.36484 37.3246 2.3265L37.3436 2.48032L37.3499 2.63639V35.3636C37.3499 36.3452 36.6351 37.169 35.6734 37.3247L35.5196 37.3437L35.3635 37.35H25.5454C24.4483 37.35 23.559 36.4606 23.559 35.3636C23.559 34.382 24.2738 33.5583 25.2355 33.4025L25.3893 33.3836L25.5454 33.3773L33.3769 33.377V4.62202H20.9859L20.9865 11.3636C20.9865 12.2907 20.3489 13.077 19.4679 13.2927L19.31 13.3247L19.1562 13.3437L19.0001 13.35H9.18172C8.08471 13.35 7.19536 12.4606 7.19536 11.3636C7.19536 10.382 7.91017 9.55831 8.87183 9.40258L9.02566 9.38362L9.18172 9.3773L17.0129 9.37702L17.0138 2.63639C17.0138 1.70931 17.6514 0.92305 18.5323 0.707362L18.6902 0.67531L18.8441 0.656347L19.0001 0.650024H35.3635Z" fill="white"/>
</g>
<defs>
<clipPath id="clip0_25_476">
<rect width="38" height="38" fill="white"/>
</clipPath>
</defs>
</svg>
