<svg width="50" height="44" viewBox="0 0 50 44" fill="none" xmlns="http://www.w3.org/2000/svg">
<g id="bfs 1">
<path id="Vector" d="M28 33C26.067 31.067 22.933 31.067 21 33C19.067 34.933 19.067 38.067 21 40C22.933 41.933 26.067 41.933 28 40C29.933 38.067 29.933 34.933 28 33Z" fill="white"/>
<path id="Vector_2" d="M11.1466 32.0874C10.1702 31.111 10.1702 29.5281 11.1466 28.5518L22.8047 16.8938C23.781 15.9175 25.3639 15.9175 26.3402 16.8938C27.3166 17.8701 27.3166 19.453 26.3402 20.4293L14.6821 32.0874C13.7058 33.0637 12.1229 33.0637 11.1466 32.0874Z" fill="white"/>
<path id="Vector_3" d="M22.8047 2.26782L2.26777 22.8047C1.29146 23.7811 1.29146 25.364 2.26777 26.3403C3.24408 27.3166 4.82699 27.3166 5.8033 26.3403L26.3402 5.80335C27.3165 4.82704 27.3165 3.24413 26.3402 2.26782C25.3639 1.29151 23.781 1.29151 22.8047 2.26782Z" fill="white"/>
<path id="Vector_4" d="M23.2672 20.8033L35.2762 32.8123C36.2525 33.7886 37.8354 33.7886 38.8117 32.8123C39.788 31.836 39.788 30.2531 38.8117 29.2768L26.8027 17.2678C25.8264 16.2915 24.2435 16.2915 23.2672 17.2678C22.2909 18.2441 22.2909 19.827 23.2672 20.8033Z" fill="white"/>
<path id="Vector_5" d="M23.2676 6.17724L43.8045 26.7142C44.7808 27.6905 46.3637 27.6905 47.34 26.7142C48.3163 25.7379 48.3163 24.1549 47.34 23.1786L26.8031 2.64171C25.8268 1.6654 24.2439 1.6654 23.2676 2.64171C22.2913 3.61802 22.2913 5.20093 23.2676 6.17724Z" fill="white"/>
</g>
</svg>
