<svg width="44" height="32" viewBox="0 0 44 32" fill="none" xmlns="http://www.w3.org/2000/svg">
<g clip-path="url(#clip0_25_438)">
<path fill-rule="evenodd" clip-rule="evenodd" d="M2.87118 21.25C1.16063 22.1751 0 23.975 0 26.0438C0 29.0572 2.46243 31.5 5.5 31.5C8.53757 31.5 11 29.0572 11 26.0438C11 23.2087 8.8203 20.8786 6.03267 20.6128C6.04872 20.4574 6.06771 20.2878 6.09015 20.1054C6.11309 20.0202 6.13893 19.9289 6.16793 19.8322C6.35682 19.2026 6.67062 18.3775 7.16754 17.5655C8.13944 15.9775 9.76032 14.4852 12.65 14.4852C15.5397 14.4852 17.1605 15.9775 18.1324 17.5655C18.6294 18.3775 18.9432 19.2026 19.1321 19.8322C19.2257 20.1443 19.2864 20.4009 19.3229 20.5739C19.3411 20.6602 19.3531 20.725 19.3601 20.7648L19.3652 20.795L19.3662 20.8025C17.075 21.4612 15.4 23.5585 15.4 26.0438C15.4 29.0572 17.8624 31.5 20.9 31.5C23.9376 31.5 26.4 29.0572 26.4 26.0438C26.4 23.5585 24.725 21.4613 22.4338 20.8025C22.4387 20.7681 22.7157 18.3034 21 15.5C19.6344 13.2687 16.9103 11.4125 12.65 11.4125C10.8573 11.4125 9.3755 11.8245 8.15868 12.4681C9.18983 10.1707 10.6686 7.95414 12.7794 6.31538C14.8709 4.69157 17.6608 3.57272 21.4499 3.57272C25.2391 3.57272 28.029 4.69157 30.1205 6.31538C32.2354 7.95734 33.7158 10.1793 34.7472 12.4816C34.8575 12.7276 35.5 15.5 35.5 15.5C36.5 19 36.5 21.5 36.5 21.5C34.7318 22.4073 33 23.9327 33 26.0438C33 29.0572 35.4624 31.5 38.5 31.5C41.5376 31.5 44 29.0572 44 26.0438C44 23.5443 42.3059 21.4374 39.9947 20.7914L39.9869 20.7012C39.9367 20.1302 39.846 19.3227 39.6838 18.3571C39.3606 16.4333 38.7469 13.8434 37.5776 11.2336C36.4091 8.6252 34.6583 5.9366 32.0294 3.8956C29.3772 1.83645 25.9108 0.5 21.4499 0.5C16.9891 0.5 13.5227 1.83645 10.8705 3.8956C8.24161 5.9366 6.49083 8.6252 5.32224 11.2336C4.153 13.8434 3.53928 16.4333 3.21608 18.3571C3.14497 18.7803 3.08762 19.1732 3.0414 19.5291C3.00178 19.6873 2.97016 19.8271 2.94535 19.9447C2.9195 20.0673 2.90091 20.1666 2.88828 20.2387C2.88197 20.2747 2.87713 20.304 2.87362 20.3261L2.86932 20.3538L2.86787 20.3634L2.86732 20.3672L2.86708 20.3688C2.86708 20.3688 2.86693 20.37 2.94314 20.3811L2.86687 20.3703C2.83852 20.5671 2.84914 20.7606 2.8929 20.943C2.88388 21.0589 2.87676 21.1616 2.87118 21.25ZM5.5 28.2263C4.28497 28.2263 3.3 27.2491 3.3 26.0438C3.3 24.8384 4.28497 23.8613 5.5 23.8613C6.71503 23.8613 7.7 24.8384 7.7 26.0438C7.7 27.2491 6.71503 28.2263 5.5 28.2263ZM38.5 28.2263C37.285 28.2263 36.3 27.2491 36.3 26.0438C36.3 24.8384 37.285 23.8613 38.5 23.8613C39.715 23.8613 40.7 24.8384 40.7 26.0438C40.7 27.2491 39.715 28.2263 38.5 28.2263ZM18.7 26.0438C18.7 27.2491 19.685 28.2263 20.9 28.2263C22.115 28.2263 23.1 27.2491 23.1 26.0438C23.1 24.8384 22.115 23.8613 20.9 23.8613C19.685 23.8613 18.7 24.8384 18.7 26.0438Z" fill="white"/>
</g>
<defs>
<clipPath id="clip0_25_438">
<rect width="44" height="31" fill="white" transform="translate(0 0.5)"/>
</clipPath>
</defs>
</svg>
