<svg width="48" height="54" viewBox="0 0 48 54" fill="none" xmlns="http://www.w3.org/2000/svg">
<g clip-path="url(#clip0_25_446)">
<path d="M9 47.5C11.7614 47.5 14 45.2614 14 42.5C14 39.7386 11.7614 37.5 9 37.5C6.23858 37.5 4 39.7386 4 42.5C4 45.2614 6.23858 47.5 9 47.5Z" fill="white"/>
<path d="M19 34.5C21.7614 34.5 24 32.2614 24 29.5C24 26.7386 21.7614 24.5 19 24.5C16.2386 24.5 14 26.7386 14 29.5C14 32.2614 16.2386 34.5 19 34.5Z" fill="white"/>
<path d="M24.856 20.2997L29.1209 12.9128C29.3534 12.5101 29.2154 11.9952 28.8128 11.7628C28.4101 11.5303 27.8952 11.6683 27.6628 12.0709L23.3979 19.4579L21.9397 18.616L22.188 23.2372L26.3142 21.1416L24.856 20.2997Z" fill="white"/>
<path d="M34 10.5C36.7614 10.5 39 8.26142 39 5.5C39 2.73858 36.7614 0.5 34 0.5C31.2386 0.5 29 2.73858 29 5.5C29 8.26142 31.2386 10.5 34 10.5Z" fill="white"/>
</g>
<defs>
<clipPath id="clip0_25_446">
<rect width="48" height="53" fill="white" transform="translate(0 0.5)"/>
</clipPath>
</defs>
</svg>
