<svg width="56" height="50" viewBox="0 0 56 50" fill="none" xmlns="http://www.w3.org/2000/svg">
<g clip-path="url(#clip0_28_182)">
<mask id="mask0_28_182" style="mask-type:luminance" maskUnits="userSpaceOnUse" x="0" y="0" width="56" height="50">
<path d="M56 0.5H0V49.5H56V0.5Z" fill="white"/>
</mask>
<g mask="url(#mask0_28_182)">
<path d="M51.3333 37.3623V42.3807C51.3333 46.311 40.4716 49.5 28 49.5C15.5306 49.5 4.66663 46.311 4.66663 42.3807V37.3623C10.3087 40.9107 21.0116 41.9683 28 41.9683C35.0139 41.9683 45.7053 40.9005 51.3333 37.3623ZM28 30.4022C20.9859 30.4022 10.2946 29.3345 4.66663 25.7963V30.7657C4.66663 34.6979 15.5306 37.885 28 37.885C40.4716 37.885 51.3333 34.6959 51.3333 30.7657V25.7963C45.6913 29.3447 34.9883 30.4022 28 30.4022ZM28 0.5C15.5306 0.5 4.66663 3.68908 4.66663 7.62133C4.66663 11.5535 15.5306 14.7406 28 14.7406C40.4716 14.7406 51.3333 11.5515 51.3333 7.62133C51.3333 3.68908 40.4716 0.5 28 0.5ZM28 18.824C20.9859 18.824 10.2946 17.7562 4.66663 14.218V19.1996C4.66663 23.1319 15.5306 26.3189 28 26.3189C40.4716 26.3189 51.3333 23.1298 51.3333 19.1996V14.218C45.6913 17.7664 34.9883 18.824 28 18.824Z" fill="white"/>
</g>
</g>
<defs>
<clipPath id="clip0_28_182">
<rect width="56" height="49" fill="white" transform="translate(0 0.5)"/>
</clipPath>
</defs>
</svg>
