<svg width="44" height="32" viewBox="0 0 44 32" fill="none" xmlns="http://www.w3.org/2000/svg">
<g clip-path="url(#clip0_25_462)">
<path fill-rule="evenodd" clip-rule="evenodd" d="M0 26.0438C0 23.975 1.16063 22.1751 2.87118 21.25C2.87676 21.1616 2.88388 21.0589 2.8929 20.943C2.84914 20.7606 2.83852 20.5671 2.86687 20.3703L2.94314 20.3811C2.86693 20.37 2.86708 20.3688 2.86708 20.3688L2.86732 20.3672L2.86787 20.3634L2.86932 20.3538L2.87362 20.3261C2.87713 20.304 2.88197 20.2747 2.88828 20.2387C2.90091 20.1666 2.9195 20.0673 2.94535 19.9447C2.97016 19.8271 3.00178 19.6873 3.0414 19.5291C3.08762 19.1732 3.14497 18.7803 3.21608 18.3571C3.53928 16.4333 4.153 13.8434 5.32224 11.2336C6.49083 8.6252 8.24161 5.9366 10.8705 3.8956C13.5227 1.83645 16.9891 0.5 21.4499 0.5C25.9108 0.5 29.3772 1.83645 32.0294 3.8956C34.6583 5.9366 36.4091 8.6252 37.5776 11.2336C38.7469 13.8434 39.3606 16.4333 39.6838 18.3571C39.846 19.3227 39.9366 20.1302 39.9869 20.7012L39.9947 20.7914C42.3059 21.4374 44 23.5443 44 26.0438C44 29.0572 41.5376 31.5 38.5 31.5C35.4624 31.5 33 29.0572 33 26.0438C33 23.9327 34.2086 22.1016 35.9768 21.1943C35.9109 21.0423 35.8689 20.877 35.8557 20.7028L22.445 20.6984L35.8554 20.6996C35.8549 20.6936 35.8537 20.6809 35.8517 20.6618C35.8477 20.6237 35.8403 20.5608 35.8282 20.4766C35.8039 20.3077 35.7607 20.0561 35.6872 19.7498C35.5387 19.1312 35.2747 18.3235 34.8179 17.5304C33.9435 16.0124 32.3501 14.4852 29.15 14.4852C25.9499 14.4852 24.3565 16.0124 23.4821 17.5304C23.0253 18.3235 22.7613 19.1312 22.6128 19.7498C22.5393 20.0561 22.4961 20.3077 22.4718 20.4766C22.4597 20.5608 22.4523 20.6237 22.4483 20.6618C22.4472 20.6724 22.4463 20.6811 22.4457 20.6877C22.4455 20.6913 22.4452 20.6948 22.445 20.6984C22.4425 20.7334 22.4387 20.7681 22.4338 20.8025C24.725 21.4613 26.4 23.5585 26.4 26.0438C26.4 29.0572 23.9376 31.5 20.9 31.5C17.8624 31.5 15.4 29.0572 15.4 26.0438C15.4 23.5584 17.075 21.4612 19.3662 20.8025C19.3659 20.8 19.3655 20.7975 19.3652 20.795L19.3601 20.7648C19.3531 20.725 19.3411 20.6602 19.3229 20.5739C19.2864 20.4009 19.2257 20.1443 19.1321 19.8322C18.9432 19.2026 18.6294 18.3775 18.1324 17.5655C17.1605 15.9775 15.5397 14.4852 12.65 14.4852C9.76032 14.4852 8.13944 15.9775 7.16754 17.5655C6.67062 18.3775 6.35682 19.2026 6.16793 19.8322C6.13893 19.9289 6.11309 20.0202 6.09015 20.1054C6.06771 20.2878 6.04872 20.4574 6.03267 20.6128C8.8203 20.8786 11 23.2087 11 26.0438C11 29.0572 8.53757 31.5 5.5 31.5C2.46243 31.5 0 29.0572 0 26.0438ZM20.797 15.9987C22.1238 13.6998 24.6548 11.4125 29.15 11.4125C31.7116 11.4125 33.6353 12.1552 35.0618 13.2196C34.9622 12.9738 34.8575 12.7276 34.7472 12.4815C33.7158 10.1793 32.2354 7.95734 30.1205 6.31538C28.029 4.69157 25.2391 3.57272 21.4499 3.57272C17.6608 3.57272 14.8709 4.69157 12.7794 6.31538C10.6686 7.95414 9.18983 10.1707 8.15868 12.4681C9.3755 11.8245 10.8573 11.4125 12.65 11.4125C16.9103 11.4125 19.4144 13.7395 20.78 15.9708C20.7857 15.9801 20.7914 15.9894 20.797 15.9987ZM5.5 28.2263C4.28497 28.2263 3.3 27.2491 3.3 26.0438C3.3 24.8384 4.28497 23.8613 5.5 23.8613C6.71503 23.8613 7.7 24.8384 7.7 26.0438C7.7 27.2491 6.71503 28.2263 5.5 28.2263ZM38.5 28.2263C37.285 28.2263 36.3 27.2491 36.3 26.0438C36.3 24.8384 37.285 23.8613 38.5 23.8613C39.715 23.8613 40.7 24.8384 40.7 26.0438C40.7 27.2491 39.715 28.2263 38.5 28.2263ZM18.7 26.0438C18.7 27.2491 19.685 28.2263 20.9 28.2263C22.115 28.2263 23.1 27.2491 23.1 26.0438C23.1 24.8384 22.115 23.8613 20.9 23.8613C19.685 23.8613 18.7 24.8384 18.7 26.0438Z" fill="white"/>
</g>
<defs>
<clipPath id="clip0_25_462">
<rect width="44" height="31" fill="white" transform="translate(0 0.5)"/>
</clipPath>
</defs>
</svg>
