<svg width="90" height="43" viewBox="0 0 90 43" fill="none" xmlns="http://www.w3.org/2000/svg">
<g id="QGLogo 1" clip-path="url(#clip0_5_192)">
<path id="Vector" d="M42 6.33856V30.3386H36V36.3386H30V42.3386H6V36.3386H0V6.33856H6V0.338562H36V6.33856H42ZM30 6.33856H12V36.3386H24V30.3386H18V24.3386H30V6.33856ZM36 42.3386V36.3386H42V42.3386H36ZM60 42.3386V36.3386H54V30.3386H48V12.3386H54V6.33856H60V0.338562H90V6.33856H66V12.3386H60V30.3386H66V36.3386H78V24.3386H72V18.3386H90V42.3386H60Z" fill="black"/>
</g>
<defs>
<clipPath id="clip0_5_192">
<rect width="90" height="42" fill="white" transform="translate(0 0.338562)"/>
</clipPath>
</defs>
</svg>
